<svg xmlns="http://www.w3.org/2000/svg" version="1.1" xmlns:xlink="http://www.w3.org/1999/xlink" xmlns:svgjs="http://svgjs.dev/svgjs" width="2000" height="1500" viewBox="0 0 2000 1500"><rect width="2000" height="1500" fill="#ffffff"></rect><g transform="matrix(0.75,0,0,0.75,249.090909090909,658.3544048698077)"><svg viewBox="0 0 396 48" data-background-color="#ffffff" preserveAspectRatio="xMidYMid meet" height="242" width="2000" xmlns="http://www.w3.org/2000/svg" xmlns:xlink="http://www.w3.org/1999/xlink"><g id="tight-bounds" transform="matrix(1,0,0,1,0.2400000000000091,0.23685160467894661)"><svg viewBox="0 0 395.52 47.52629679064213" height="47.52629679064213" width="395.52"><g><svg viewBox="0 0 562.3645104430382 67.574592" height="47.52629679064213" width="395.52"><g><rect width="6.0636283020288" height="67.574592" x="144.90750962260933" y="0" fill="#0080ff" opacity="1" stroke-width="0" stroke="transparent" fill-opacity="1" class="rect-o-0" data-fill-palette-color="primary" rx="1%" id="o-0" data-palette-color="#0080ff"></rect></g><g transform="matrix(1,0,0,1,166.84451044303813,0.16809599999999847)"><svg viewBox="0 0 395.52 67.2384" height="67.2384" width="395.52"><g id="textblocktransform"><svg viewBox="0 0 395.52 67.2384" height="67.2384" width="395.52" id="textblock"><g><svg viewBox="0 0 395.52 67.2384" height="67.2384" width="395.52"><g transform="matrix(1,0,0,1,0,0)"><svg width="395.52" viewBox="3.1500000953674316 -36.900001525878906 219.99000549316406 37.400001525878906" height="67.2384" data-palette-color="#0080ff"><path d="M32.25-30.05L32.25-30.05Q32.25-28.2 30.98-27.28 29.7-26.35 27.85-26.35 26-26.35 24.7-27.1L24.7-27.1Q24.8-27.75 24.8-28.35L24.8-28.35Q24.8-30.2 23.68-31.58 22.55-32.95 19.75-32.95L19.75-32.95Q15.8-32.95 12.9-29.15 10-25.35 10-18.55 10-11.75 12.93-8.53 15.85-5.3 20.95-5.3L20.95-5.3Q23.95-5.3 26.63-6.65 29.3-8 30.9-9.85L30.9-9.85Q31.55-9.7 31.95-8.9 32.35-8.1 32.35-7.3L32.35-7.3Q32.35-4.7 28.48-2.1 24.6 0.5 19.25 0.5L19.25 0.5Q11.85 0.5 7.5-4.35 3.15-9.2 3.15-17.8 3.15-26.4 7.95-31.65 12.75-36.9 20.55-36.9L20.55-36.9Q25.4-36.9 28.83-34.9 32.25-32.9 32.25-30.05ZM53.5-26.35L48.5-11.7 57.9-11.7 53.5-26.35ZM65.65 0.5L65.65 0.5Q63.9 0.5 62.85-0.35 61.8-1.2 60.95-3.4L60.95-3.4 59.45-7.55 47-7.55 45.4-3.3Q44.05 0.5 41.2 0.5L41.2 0.5Q39.9 0.5 38.8-0.13 37.7-0.75 37.3-1.7L37.3-1.7Q38.6-2.25 39.65-4.95L39.65-4.95 50.45-32.6Q49.75-34.3 48.8-35.05L48.8-35.05Q50.15-36.9 52.42-36.9 54.7-36.9 55.67-35.77 56.65-34.65 57.65-31.85L57.65-31.85 67.05-5.6Q68.15-2.65 69.95-1.75L69.95-1.75Q68.8 0.5 65.65 0.5ZM86-31.7L81.75-31.7 81.75-18.9 86-18.9Q89.75-18.9 91.72-20.58 93.7-22.25 93.7-25.3 93.7-28.35 91.72-30.03 89.75-31.7 86-31.7L86-31.7ZM98.45 0.5L98.45 0.5Q96.45 0.5 95.1-0.4 93.75-1.3 92.05-3.9L92.05-3.9 85.3-14.2 81.75-14.2 81.75-4.35Q81.75-2.15 83.25-1.45L83.25-1.45Q81.7 0.5 79.4 0.5L79.4 0.5Q75.3 0.5 75.3-4.5L75.3-4.5 75.3-31.5Q75.3-33.65 73.75-34.4L73.75-34.4Q75.4-36.45 78.15-36.45L78.15-36.45 86.3-36.45Q92.25-36.45 96.3-33.5 100.35-30.55 100.35-25.3L100.35-25.3Q100.35-21.5 98.15-18.9 95.95-16.3 92.25-15.1L92.25-15.1 98.95-5.6Q100.6-3.3 102.8-2.55L102.8-2.55Q101.3 0.5 98.45 0.5ZM117.04-7.6Q119.79-3.75 124.39-3.75 128.99-3.75 131.24-7.85L131.24-7.85Q133.09-11.25 133.09-16.35L133.09-16.35Q133.09-24.35 129.84-28.85L129.84-28.85Q127.14-32.7 122.52-32.7 117.89-32.7 115.69-28.6L115.69-28.6Q113.84-25.2 113.84-20.05L113.84-20.05Q113.84-12.05 117.04-7.6L117.04-7.6ZM135.57-31.8Q139.64-26.7 139.64-18.25 139.64-9.8 135.54-4.65 131.44 0.5 123.52 0.5 115.59 0.5 111.42-4.67 107.24-9.85 107.24-18.23 107.24-26.6 111.44-31.75 115.64-36.9 123.57-36.9 131.49-36.9 135.57-31.8ZM160.79-26.35L155.79-11.7 165.19-11.7 160.79-26.35ZM172.94 0.5L172.94 0.5Q171.19 0.5 170.14-0.35 169.09-1.2 168.24-3.4L168.24-3.4 166.74-7.55 154.29-7.55 152.69-3.3Q151.34 0.5 148.49 0.5L148.49 0.5Q147.19 0.5 146.09-0.13 144.99-0.75 144.59-1.7L144.59-1.7Q145.89-2.25 146.94-4.95L146.94-4.95 157.74-32.6Q157.04-34.3 156.09-35.05L156.09-35.05Q157.44-36.9 159.72-36.9 161.99-36.9 162.97-35.77 163.94-34.65 164.94-31.85L164.94-31.85 174.34-5.6Q175.44-2.65 177.24-1.75L177.24-1.75Q176.09 0.5 172.94 0.5ZM223.14-0.45L223.14-0.45Q221.54 0.35 219.74 0.35 217.94 0.35 216.91-0.63 215.89-1.6 215.69-4.1L215.69-4.1 214.09-30.2 204.39-2.1Q203.74-0.2 201.69-0.2L201.69-0.2Q200.54-0.2 200.04-0.68 199.54-1.15 199.24-2.15L199.24-2.15 189.39-30.25 187.79-4.25Q187.64-1.8 186.84-0.65 186.04 0.5 184.11 0.5 182.19 0.5 180.59-1.1L180.59-1.1Q181.79-2.2 181.94-4.6L181.94-4.6 183.99-31.55Q183.99-31.85 183.99-32.15L183.99-32.15Q183.99-34.1 183.09-35.3L183.09-35.3Q185.89-36.9 189.06-36.9 192.24-36.9 193.71-35.3 195.19-33.7 196.24-30.05L196.24-30.05 202.44-11.7 208.69-29.85Q209.89-33.95 211.74-35.43 213.59-36.9 216.39-36.9 219.19-36.9 221.29-35.9L221.29-35.9Q220.49-34.65 220.49-32.6L220.49-32.6Q220.49-32.3 220.49-31.95L220.49-31.95 222.24-4.75Q222.34-1.7 223.14-0.45Z" opacity="1" transform="matrix(1,0,0,1,0,0)" fill="#0080ff" class="wordmark-text-0" data-fill-palette-color="primary" id="text-0"></path></svg></g></svg></g></svg></g></svg></g><g transform="matrix(1,0,0,1,0,0.16809599999999847)"><svg viewBox="0 0 129.03413710420932 67.2384" height="67.2384" width="129.03413710420932"><g><svg xmlns="http://www.w3.org/2000/svg" xmlns:xlink="http://www.w3.org/1999/xlink" version="1.1" x="0" y="0" viewBox="0 23.944000244140625 100 52.10900115966797" style="enable-background:new 0 0 100 100;" xml:space="preserve" height="67.2384" width="129.03413710420932" class="icon-icon-0" data-fill-palette-color="accent" id="icon-0"><g fill="#0080ff" data-fill-palette-color="accent"><polygon points="32.812,54.999 29.642,52.646 24.936,52.174 24.236,53.316 23.283,53 22.816,51.236 21.407,51.138 21.993,49.469    20.818,49.351 19.64,50.297 18.817,49.115 19.523,47.118 22.701,46.646 23.283,48.292 24.112,48.177 24.112,46.646 26.345,43.588    29.168,42.058 32.812,40.416 30.224,34.648 29.049,35.354 28.112,32.768 25.872,32.885 25.293,37.473 24.467,37.592 21.052,33.944    21.758,32.061 25.293,31.357 25.293,26.885 16.465,27.828 11.883,25.122 9.764,27.121 3.996,23.944 0.824,25.826 1.999,27.594    0.703,27.594 0.352,28.886 2.115,29.121 0.352,30.532 0.938,32.531 2.468,32.885 0,34.885 3.881,33.004 5.996,31.823 9.408,33.944    12.115,38.531 12.115,42.648 13.762,45.707 16.465,49.941 19.761,51.113 21.172,51.821 22.816,53.938 23.965,53.76 22.701,55.823    23.757,60.053 25.994,62.051 23.283,72.996 24.23,75.348 26.934,76.053 25.293,74.287 27.522,70.054 32.345,65.937 32.697,64.055    35.052,63.7 37.405,58.879 33.288,56.882  " fill="#0080ff" data-fill-palette-color="accent"></polygon><polygon points="88.999,55.826 88.747,57.824 87.053,57.209 87.366,56.127 85.514,55.977 83.114,58.213 80.568,59.135    81.191,62.599 80.956,63.287 81.887,63.827 85.662,62.893 87.122,63.742 87.817,63.355 88.28,64.756 90.204,65.297 91.595,64.446    92.365,60.292 90.285,58.213  " fill="#0080ff" data-fill-palette-color="accent"></polygon><polygon points="79.645,53.897 81.649,54.281 82.577,51.43 82.034,50.964 79.338,52.662  " fill="#0080ff" data-fill-palette-color="accent"></polygon><polygon points="91.283,55.977 90.593,54.511 87.433,52.973 85.814,53.124 87.893,55.283 89.087,55.367 89.59,54.896  " fill="#0080ff" data-fill-palette-color="accent"></polygon><polygon points="89.59,35.625 89.054,35.625 88.974,38.399 87.588,41.328 85.814,42.642 85.736,43.795 88.974,41.869    89.127,39.865 90.204,38.863 89.362,38.17 89.818,36.554  " fill="#0080ff" data-fill-palette-color="accent"></polygon><polygon points="97.916,63.607 98.149,65.766 95.759,68.004 97.303,68.157 98.685,66.073 99.766,64.611 99.073,64.537  " fill="#0080ff" data-fill-palette-color="accent"></polygon><polygon points="46.392,31.168 46.392,33.412 47.949,32.729 48.388,32.039 46.701,28.795 45.708,29.484 45.769,30.355    44.831,31.484 44.766,32.666 45.893,32.666  " fill="#0080ff" data-fill-palette-color="accent"></polygon><polygon points="60.492,57.616 60.429,60.115 61.433,60.548 62.429,57.554 62.177,56.308  " fill="#0080ff" data-fill-palette-color="accent"></polygon><path d="M97.223 31.002L100 29.458l-0.771-2.156-20.451-2.885c0 0-12.392 1.311-19.226 2.03l-5.921-1.091-2.375 1.309-0.934 2.308-1.126 0.877-0.062 1.934 0.625 0.371 1.309-0.746 0.63 1.994 1.119-0.436 0.751-1.998-0.751-0.809 0.689-1.497 0.805-1.001 0.494 0.078-0.461 1.171-0.527 0.377 0.192 0.475-0.036 0.08 0.069 0.007 0.459 1.119 1.312-0.371 0.451 0.529-1.451 0.471 0.316 1.186-0.942-0.318-0.682 1.75-2.438-0.062-0.437-1.248-0.56 0.748 0.188 0.812-0.876 0.064-1.06 1.434-1.934 0.624 0.501 1.062 0.805 1.309-2.554-0.188 0.124 2.499 1.998 0.312 1.309-2.062 1.876-0.937 0.807 0.937 1.121 1.502 0.816-0.942-1.562-1.056-0.064-1 0.749 0.373 1.251 1.002-0.062 0.992 0.934 1.19 0.438-1.502 0.5 0.252 0.684 1.187 2.115 0.352-0.344 1.156-0.795 0.476-3.064-0.784-0.771 1.078-2.002-1.311-0.31-1.305-4.932 0.844-2.546 3.084-0.465 4.161 2.626 2.546 4.703-0.31 1.384 4.318-0.535 2.465 2.232 5.396 2.546-0.463 2.541-4.78 1.387-1.079-0.382-3.311 2.467-2.237 0.771-2.699-2.469 1.157-2.52-5.772 0.515-0.088 2.47 4.856 4.781-2.851-1.624-1.232-1.232 0.616-0.772-1.852 0.541-0.305 1.077 0.922 3.706 0.694 1.536 1.852 1.389 3.467 1.083-1.076v-1.311l3.003-2.086 1.079 2.317 0.894-0.226 0.185 2.305 0.927 1.695-2.005-1.003 1.467 2.079 1.619 1.546 3.853 0.692-2.08-0.846-1.547-0.541-0.536-2.468-1.236-1.392 0.047-1.391 1.42 1.471 1.387-1.156-1.307-1.928 0.613-1.002 2.854-0.154 1.309-2.387L82.19 41.1l1.156-1.234 0.852 1.156 0.308 1.463 1.001-0.535-0.385-1.621 0.847-1.233 1.389-0.229 1.616-4.473-1.386-1.002 1.925-1.852 2.546 0.153 2.083-1.693 1.617-0.234-2.619 3.163 0.076 2.773 2.006-2.467-0.078-1.775L97.223 31.002zM59.495 40.202l-1.368-0.37-1.877 0.311-0.436-0.808 0.997-1.749 3.247 1.688L59.495 40.202zM61.745 41.269l0.306-1.189-0.684-1.744 1.937-1.06v0.934l-0.751 0.312 0.629 0.938 0.304 1.935L61.745 41.269z" fill="#0080ff" data-fill-palette-color="accent"></path><polygon points="35.535,26.227 33.798,25.754 31.652,28.046 34.413,35.233 35.719,35.554 35.825,33.219 36.707,32.674    36.758,31.787 37.668,30.076 37.034,28.777  " fill="#0080ff" data-fill-palette-color="accent"></polygon></g></svg></g></svg></g></svg></g><defs></defs></svg><rect width="395.52" height="47.52629679064213" fill="none" stroke="none" visibility="hidden"></rect></g></svg></g></svg>